<svg xmlns="http://www.w3.org/2000/svg" viewBox="0 0 48 48" role="img" aria-label="NetEase Cloud Music">
  <rect width="48" height="48" rx="6" fill="#FFFFFF"/>
  <path fill="#31C27C" transform="translate(24 24) scale(0.92) translate(-24 -24)" d="M36.2 10.8c-1.1 2.4-1.7 5-1.7 7.7 0 9.4-7.6 17-17 17-4.8 0-9.1-2-12.2-5.2-.9 1.1-2.2 1.8-3.6 1.8-1.4 0-2.6-.6-3.5-1.5 1.6-1.5 2.6-3.6 2.6-5.9 0-1.1-.2-2.1-.6-3.1C2.8 19.6 2 16.8 2 13.8 2 6.2 8.2 0 15.8 0c4.4 0 8.4 2.1 10.9 5.4C29.1 2.5 32.5 1 36.2 1c1.3 0 2.5.2 3.6.6-1.9 2.3-3 5.2-3 8.2z"/>
</svg>
